# xmcd CD database file
#
# Track frame offsets:
#	150
#	11787
#	25172
#	37932
#	53257
#	64946
#	80587
#	103263
#	119166
#	136624
#	155951
#	178315
#	203876
#	216537
#
# Disc length: 3053 seconds
#
# Revision: 3
# Processed by: cddbd v1.5.1PL0 Copyright (c) Steve Scherf et al.
# Submitted via: CDex 1.51
#
DISCID=ce0beb0e
DTITLE=B.B King - 2CD Luxury Edition - CD2
DYEAR=2003
DGENRE=Blues
TTITLE0=I Never Heard A Man
TTITLE1=Army Of The Lord
TTITLE2=How Blue Can You Get
TTITLE3=I'm Working On The Building
TTITLE4=Payin' The Costs To Be The Boss
TTITLE5=The Letter
TTITLE6=Everyday I Have The Blues
TTITLE7=Long Nights
TTITLE8=That Evil Child
TTITLE9=Sweet Sixteen
TTITLE10=The Thrill Is Gone
TTITLE11=Guess Who
TTITLE12=Please Love Me
TTITLE13=Outside Help
EXTD=YEAR: 2003
EXTT0=
EXTT1=
EXTT2=
EXTT3=
EXTT4=
EXTT5=
EXTT6=
EXTT7=
EXTT8=
EXTT9=
EXTT10=
EXTT11=
EXTT12=
EXTT13=
PLAYORDER=
